<svg width="18" height="18" viewBox="0 0 18 18" fill="none" xmlns="http://www.w3.org/2000/svg">
<path fill-rule="evenodd" clip-rule="evenodd" d="M3.8498 5.55353C2.84783 5.55353 2.03557 4.74127 2.03557 3.7393C2.03557 2.73733 2.84783 1.92507 3.8498 1.92507C4.85177 1.92507 5.66403 2.73733 5.66403 3.7393C5.66403 4.74127 4.85177 5.55353 3.8498 5.55353ZM0.221344 1.32033C0.221344 0.99955 0.348772 0.691913 0.575594 0.46509C0.802417 0.238267 1.11005 0.11084 1.43083 0.11084H6.26877C6.58955 0.11084 6.89719 0.238267 7.12401 0.46509C7.35083 0.691913 7.47826 0.99955 7.47826 1.32033V6.15827C7.47826 6.47905 7.35083 6.78668 7.12401 7.01351C6.89719 7.24033 6.58955 7.36776 6.26877 7.36776H1.43083C1.11005 7.36776 0.802417 7.24033 0.575594 7.01351C0.348772 6.78668 0.221344 6.47905 0.221344 6.15827V1.32033ZM9.89723 1.6227C9.89723 1.38212 9.9928 1.15139 10.1629 0.981271C10.333 0.811154 10.5638 0.715583 10.8043 0.715583H16.247C16.4876 0.715583 16.7183 0.811154 16.8885 0.981271C17.0586 1.15139 17.1542 1.38212 17.1542 1.6227C17.1542 1.86328 17.0586 2.09401 16.8885 2.26412C16.7183 2.43424 16.4876 2.52981 16.247 2.52981H10.8043C10.5638 2.52981 10.333 2.43424 10.1629 2.26412C9.9928 2.09401 9.89723 1.86328 9.89723 1.6227ZM10.8043 4.94878C10.5638 4.94878 10.333 5.04435 10.1629 5.21447C9.9928 5.38459 9.89723 5.61532 9.89723 5.8559C9.89723 6.09648 9.9928 6.32721 10.1629 6.49733C10.333 6.66744 10.5638 6.76301 10.8043 6.76301H16.247C16.4876 6.76301 16.7183 6.66744 16.8885 6.49733C17.0586 6.32721 17.1542 6.09648 17.1542 5.8559C17.1542 5.61532 17.0586 5.38459 16.8885 5.21447C16.7183 5.04435 16.4876 4.94878 16.247 4.94878H10.8043ZM3.8498 11.601C2.84783 11.601 2.03557 12.4132 2.03557 13.4152C2.03557 14.4172 2.84783 15.2294 3.8498 15.2294C4.85177 15.2294 5.66403 14.4172 5.66403 13.4152C5.66403 12.4132 4.85177 11.601 3.8498 11.601ZM1.43083 9.78673C1.11005 9.78673 0.802417 9.91416 0.575594 10.141C0.348772 10.3678 0.221344 10.6754 0.221344 10.9962V15.8342C0.221344 16.1549 0.348772 16.4626 0.575594 16.6894C0.802417 16.9162 1.11005 17.0436 1.43083 17.0436H6.26877C6.58955 17.0436 6.89719 16.9162 7.12401 16.6894C7.35083 16.4626 7.47826 16.1549 7.47826 15.8342V10.9962C7.47826 10.6754 7.35083 10.3678 7.12401 10.141C6.89719 9.91416 6.58955 9.78673 6.26877 9.78673H1.43083ZM10.8043 10.3915C10.5638 10.3915 10.333 10.487 10.1629 10.6572C9.9928 10.8273 9.89723 11.058 9.89723 11.2986C9.89723 11.5392 9.9928 11.7699 10.1629 11.94C10.333 12.1101 10.5638 12.2057 10.8043 12.2057H16.247C16.4876 12.2057 16.7183 12.1101 16.8885 11.94C17.0586 11.7699 17.1542 11.5392 17.1542 11.2986C17.1542 11.058 17.0586 10.8273 16.8885 10.6572C16.7183 10.487 16.4876 10.3915 16.247 10.3915H10.8043ZM10.8043 14.6247C10.5638 14.6247 10.333 14.7202 10.1629 14.8904C9.9928 15.0605 9.89723 15.2912 9.89723 15.5318C9.89723 15.7724 9.9928 16.0031 10.1629 16.1732C10.333 16.3433 10.5638 16.4389 10.8043 16.4389H16.247C16.4876 16.4389 16.7183 16.3433 16.8885 16.1732C17.0586 16.0031 17.1542 15.7724 17.1542 15.5318C17.1542 15.2912 17.0586 15.0605 16.8885 14.8904C16.7183 14.7202 16.4876 14.6247 16.247 14.6247H10.8043Z" fill="#00714F"/>
</svg>
