<svg width="18" height="18" viewBox="0 0 18 18" fill="none" xmlns="http://www.w3.org/2000/svg">
<path d="M0.341315 6.01089C0.320766 6.37809 0.526259 6.72028 0.860409 6.87396L3.98221 8.30589C6.29363 9.36612 8.148 11.2204 9.20834 13.5318L10.6401 16.6528C10.7866 16.9708 11.1047 17.1736 11.4522 17.1736L11.5032 17.1718C11.6825 17.1618 11.8546 17.0979 11.9971 16.9886C12.1396 16.8793 12.2458 16.7295 12.3019 16.5589L17.3008 1.34172C17.4053 1.02187 17.3213 0.668957 17.0836 0.430406C16.846 0.191855 16.494 0.110551 16.1723 0.213298L0.954221 5.21304C0.783555 5.26877 0.633714 5.37477 0.524342 5.51715C0.414971 5.65952 0.351173 5.83162 0.341315 6.01089Z" fill="#00714F"/>
</svg>
