<svg width="20" height="19" viewBox="0 0 20 19" fill="none" xmlns="http://www.w3.org/2000/svg">
<path d="M4.11859 9.39638C4.11859 9.17716 4.20568 8.96691 4.36069 8.8119C4.51571 8.65689 4.72595 8.5698 4.94517 8.5698C7.07128 8.5698 8.79484 6.84625 8.79484 4.72014C8.79484 4.50091 8.88192 4.29067 9.03694 4.13565C9.19195 3.98064 9.40219 3.89355 9.62142 3.89355C9.84064 3.89355 10.0509 3.98064 10.2059 4.13565C10.3609 4.29067 10.448 4.50091 10.448 4.72014C10.448 6.84625 12.1716 8.5698 14.2977 8.5698C14.5169 8.5698 14.7271 8.65689 14.8821 8.8119C15.0372 8.96691 15.1242 9.17716 15.1242 9.39638C15.1242 9.6156 15.0372 9.82585 14.8821 9.98086C14.7271 10.1359 14.5169 10.223 14.2977 10.223C12.1716 10.223 10.448 11.9465 10.448 14.0726C10.448 14.2918 10.3609 14.5021 10.2059 14.6571C10.0509 14.8121 9.84064 14.8992 9.62142 14.8992C9.40219 14.8992 9.19195 14.8121 9.03694 14.6571C8.88192 14.5021 8.79484 14.2918 8.79484 14.0726C8.79484 11.9465 7.07128 10.223 4.94517 10.223C4.72595 10.223 4.51571 10.1359 4.36069 9.98086C4.20568 9.82585 4.11859 9.6156 4.11859 9.39638Z" fill="#00714F"/>
<path fill-rule="evenodd" clip-rule="evenodd" d="M4.56006 0.402677C8.02312 0.0187692 11.518 0.0187692 14.9811 0.402677C17.0138 0.629656 18.655 2.23075 18.8931 4.27467C19.3048 7.78727 19.3048 11.3355 18.8931 14.8481C18.6539 16.892 17.0127 18.492 14.9811 18.7201C11.518 19.104 8.02311 19.104 4.56006 18.7201C2.52726 18.492 0.886119 16.892 0.648013 14.8481C0.237202 11.3356 0.237202 7.78717 0.648013 4.27467C0.886119 2.23075 2.52838 0.629656 4.56006 0.402677ZM14.7964 2.06162C14.7964 2.06099 14.7959 2.06046 14.7952 2.06039C11.4553 1.69026 8.08469 1.6903 4.74476 2.06051C4.1264 2.12911 3.54923 2.40418 3.10648 2.84127C2.66373 3.27836 2.38128 3.85195 2.30474 4.46938C1.90902 7.85289 1.90902 11.271 2.30474 14.6545C2.38151 15.2717 2.66407 15.8451 3.10679 16.2819C3.54952 16.7188 4.12656 16.9937 4.74476 17.0623C8.05709 17.4316 11.484 17.4316 14.7964 17.0623C15.4143 16.9935 15.9911 16.7185 16.4336 16.2816C16.8761 15.8448 17.1585 15.2715 17.2353 14.6545C17.631 11.271 17.631 7.85289 17.2353 4.46938C17.1583 3.85252 16.8758 3.27957 16.4333 2.84295C15.9911 2.40658 15.4149 2.1318 14.7975 2.06286C14.7968 2.06279 14.7964 2.06226 14.7964 2.06162Z" fill="#00714F"/>
</svg>
