<svg width="20" height="19" viewBox="0 0 20 19" fill="none" xmlns="http://www.w3.org/2000/svg">
<path d="M1.22134 15.8672C1.22134 14.7445 1.66734 13.6678 2.46122 12.8739C3.2551 12.08 4.33183 11.634 5.45455 11.634H13.9209C15.0437 11.634 16.1204 12.08 16.9143 12.8739C17.7082 13.6678 18.1542 14.7445 18.1542 15.8672C18.1542 16.4286 17.9312 16.967 17.5342 17.3639C17.1373 17.7608 16.5989 17.9838 16.0375 17.9838H3.33794C2.77659 17.9838 2.23822 17.7608 1.84128 17.3639C1.44434 16.967 1.22134 16.4286 1.22134 15.8672Z" fill="white" stroke="#00714F" stroke-width="1.88142" stroke-linejoin="round"/>
<path d="M9.68775 7.40083C11.4412 7.40083 12.8626 5.97938 12.8626 4.22593C12.8626 2.47248 11.4412 1.05103 9.68775 1.05103C7.9343 1.05103 6.51285 2.47248 6.51285 4.22593C6.51285 5.97938 7.9343 7.40083 9.68775 7.40083Z" fill="white" stroke="#00714F" stroke-width="1.88142"/>
</svg>
