<svg width="16" height="17" viewBox="0 0 16 17" fill="none" xmlns="http://www.w3.org/2000/svg">
<path d="M2.10277 16.9841C1.58538 16.9841 1.1423 16.7997 0.773543 16.4309C0.404784 16.0622 0.220718 15.6194 0.221346 15.1027V1.93269C0.221346 1.4153 0.405725 0.972228 0.774484 0.603469C1.14324 0.23471 1.586 0.050644 2.10277 0.0512711H7.74704C8.26658 0.0512711 8.68775 0.472442 8.68775 0.991983C8.68775 1.51152 8.26658 1.93269 7.74704 1.93269H5.39526C3.57687 1.93269 2.10277 3.40679 2.10277 5.22518V11.8102C2.10277 13.6286 3.57687 15.1027 5.39526 15.1027H7.74704C8.26658 15.1027 8.68775 15.5238 8.68775 16.0434C8.68775 16.5629 8.26658 16.9841 7.74704 16.9841H2.10277ZM13.1328 12.539C12.759 12.9128 12.1505 12.9047 11.7867 12.5211C11.4363 12.1516 11.444 11.5703 11.8041 11.2102L11.8466 11.1677C12.4774 10.5369 12.0306 9.45839 11.1386 9.45839H6.80632C6.28678 9.45839 5.86561 9.03722 5.86561 8.51767C5.86561 7.99813 6.28679 7.57696 6.80633 7.57696H11.1386C12.0306 7.57696 12.4774 6.49842 11.8466 5.86763L11.8041 5.82512C11.444 5.46506 11.4363 4.88372 11.7867 4.51423C12.1505 4.13061 12.759 4.12254 13.1328 4.49637L14.8336 6.19711C16.1152 7.47872 16.1152 9.55663 14.8336 10.8382L13.1328 12.539Z" fill="#00714F"/>
</svg>
