<svg width="21" height="5" viewBox="0 0 21 5" fill="none" xmlns="http://www.w3.org/2000/svg">
<path d="M1 2.16667C1 2.47609 1.12292 2.77283 1.34171 2.99162C1.5605 3.21042 1.85725 3.33333 2.16667 3.33333C2.47609 3.33333 2.77283 3.21042 2.99162 2.99162C3.21042 2.77283 3.33333 2.47609 3.33333 2.16667C3.33333 1.85725 3.21042 1.5605 2.99162 1.34171C2.77283 1.12292 2.47609 1 2.16667 1C1.85725 1 1.5605 1.12292 1.34171 1.34171C1.12292 1.5605 1 1.85725 1 2.16667ZM9.16667 2.16667C9.16667 2.47609 9.28958 2.77283 9.50837 2.99162C9.72717 3.21042 10.0239 3.33333 10.3333 3.33333C10.6428 3.33333 10.9395 3.21042 11.1583 2.99162C11.3771 2.77283 11.5 2.47609 11.5 2.16667C11.5 1.85725 11.3771 1.5605 11.1583 1.34171C10.9395 1.12292 10.6428 1 10.3333 1C10.0239 1 9.72717 1.12292 9.50837 1.34171C9.28958 1.5605 9.16667 1.85725 9.16667 2.16667ZM17.3333 2.16667C17.3333 2.47609 17.4562 2.77283 17.675 2.99162C17.8938 3.21042 18.1906 3.33333 18.5 3.33333C18.8094 3.33333 19.1062 3.21042 19.325 2.99162C19.5437 2.77283 19.6667 2.47609 19.6667 2.16667C19.6667 1.85725 19.5437 1.5605 19.325 1.34171C19.1062 1.12292 18.8094 1 18.5 1C18.1906 1 17.8938 1.12292 17.675 1.34171C17.4562 1.5605 17.3333 1.85725 17.3333 2.16667Z" stroke="black" stroke-width="2" stroke-linecap="round" stroke-linejoin="round"/>
</svg>
